<svg width="122" height="37" viewBox="0 0 122 37" fill="none" xmlns="http://www.w3.org/2000/svg">
<path d="M9.00506 33.2918H3.47481L2.18123 36.7772H0L4.92991 23.8001H7.54853L12.4799 36.7772H10.2944L9.00363 33.2918H9.00506ZM8.26036 31.3081L6.24208 25.877L4.22094 31.3081H8.26036Z" fill="white"/>
<path d="M17.5599 22.5038H15.4858V36.7772H17.5599V22.5038Z" fill="white"/>
<path d="M27.2568 26.4159V28.5481C27.0752 28.5292 26.9094 28.5117 26.6378 28.5117C24.7625 28.5117 23.3274 29.5866 23.3274 32.1077V36.7786H21.272V26.5819H23.3274V28.6049C23.9277 27.1776 25.0741 26.362 26.6564 26.362C26.9094 26.362 27.111 26.3809 27.2568 26.4173" fill="white"/>
<path d="M39.2349 26.5805V36.7786H37.1795V35.0716C36.4519 36.2397 35.2498 37 33.6847 37C31.0117 37 29.0649 34.7949 29.0649 31.6795C29.0649 28.5642 31.0489 26.3591 33.6689 26.3591C35.2512 26.3591 36.4534 27.1558 37.1795 28.3238V26.5805H39.2349ZM37.1966 31.6795C37.1966 29.7337 35.8687 28.3617 34.122 28.3617C32.3753 28.3617 31.1389 29.7322 31.1389 31.6795C31.1389 33.6268 32.3925 34.9974 34.122 34.9974C35.8516 34.9974 37.1966 33.6458 37.1966 31.6795Z" fill="white"/>
<path d="M58.0298 30.2333V36.7786H55.9743V30.6789C55.9743 29.1599 55.374 28.3632 53.9904 28.3632C52.3709 28.3632 51.5361 29.6405 51.5361 31.4946L51.5533 36.7786H49.4807V30.6789C49.4807 29.1599 48.8803 28.3632 47.4967 28.3632C45.8772 28.3632 45.0582 29.6405 45.0582 31.4946V36.7786H43.0027V26.5819H45.0582V28.2132C45.7486 27.0451 46.732 26.3591 48.1685 26.3591C49.6979 26.3591 50.77 27.1179 51.2631 28.4913C51.9349 27.1762 53.0627 26.3591 54.6464 26.3591C56.7562 26.3591 58.0298 27.8053 58.0298 30.2333Z" fill="white"/>
<path d="M70.0937 34.7935V36.7786H61.6532V34.7935L67.3636 28.5656H61.9791V26.5819H70.0022V28.5656L64.2719 34.7935H70.0937Z" fill="white"/>
<path d="M92.5577 12.8271C95.0863 13.6806 97.5606 14.6112 99.9776 15.6104C102.393 14.6112 104.866 13.682 107.392 12.8285C109.806 13.9719 112.16 15.1851 114.451 16.4609C114.612 15.0511 114.772 13.6383 114.932 12.227C112.569 10.8536 110.142 9.54857 107.646 8.31204C105.032 9.24854 102.473 10.2608 99.9776 11.3473C97.4805 10.2608 94.9219 9.24709 92.3047 8.31058C89.8062 9.54712 87.372 10.8536 85.0064 12.2256C85.1779 13.6354 85.3523 15.0453 85.5238 16.4551C87.8079 15.1793 90.1535 13.9689 92.5592 12.8256" fill="white"/>
<path d="M99.9762 5.08743C102.591 6.08802 105.149 7.1658 107.649 8.31349C107.728 6.8949 107.809 5.4763 107.888 4.05771C105.313 2.8168 102.676 1.65163 99.9776 0.563651C97.2776 1.65163 94.6418 2.8168 92.0689 4.05625C92.1489 5.47485 92.229 6.89344 92.3076 8.31204C94.8047 7.16434 97.3633 6.08656 99.9762 5.08743Z" fill="white"/>
<path d="M93.1509 23.3325C90.9354 24.5516 88.7842 25.8333 86.7002 27.1732L87.2119 31.4028C89.2159 30.1604 91.2799 28.9749 93.4039 27.8476C94.8548 28.4098 96.2741 29.0098 97.6778 29.6274V36.7786H102.246V29.639C103.657 29.0186 105.082 28.4141 106.538 27.8505C107.22 28.2102 107.895 28.5773 108.565 28.9487C109.989 29.7424 111.385 30.5624 112.753 31.4086C112.913 29.9973 113.074 28.586 113.234 27.1761C111.154 25.8362 109.007 24.5545 106.796 23.3355C104.462 24.2865 102.189 25.309 99.9748 26.3955C97.7607 25.309 95.4837 24.2851 93.1495 23.334" fill="white"/>
<path d="M114.444 16.4609C111.919 17.2591 109.449 18.133 107.037 19.0797C104.746 17.8562 102.389 16.6984 99.9719 15.6118C97.5563 16.6984 95.2021 17.8562 92.9108 19.0797C90.4923 18.1315 88.0138 17.2576 85.4809 16.4609C83.1968 17.8242 80.9827 19.2501 78.8343 20.7371C79.0845 22.1339 79.3375 23.5306 79.5876 24.9288C81.6588 23.5452 83.7928 22.2198 85.9898 20.9541C88.4283 21.6736 90.8168 22.4689 93.1509 23.3325C95.3665 22.2023 97.6392 21.1333 99.9705 20.1342C102.303 21.1333 104.579 22.2023 106.797 23.334C109.124 22.4689 111.504 21.6736 113.934 20.9527C116.144 22.2213 118.291 23.5496 120.373 24.9347C120.612 23.535 120.852 22.1368 121.091 20.7371C118.945 19.2501 116.727 17.8242 114.444 16.4609Z" fill="white"/>
<path d="M3.12604 2.68281C3.91077 2.68281 4.34244 2.21528 4.34244 1.36471C4.34244 0.514131 3.91077 0.0393245 3.12604 0.0393245C2.34132 0.0393245 1.90965 0.509762 1.90965 1.36471C1.90965 2.21965 2.34275 2.68281 3.12604 2.68281Z" fill="white"/>
<path d="M62.9511 12.0464H56.9635C56.446 12.0464 56.0415 11.9008 55.7285 11.5993C55.4212 11.3007 55.2696 10.9045 55.2696 10.389V4.05042H53.2128V13.9995C53.2128 14.735 53.057 15.3307 52.7482 15.7706C52.4538 16.193 52.0693 16.3983 51.5761 16.3983H51.0701V18.3791H51.6119C52.7754 18.3791 53.6888 17.9698 54.3263 17.163C54.9523 16.3706 55.2696 15.2739 55.2696 13.9034V13.3689C55.6127 13.7082 56.0801 13.9384 56.669 13.9893C56.872 14.0068 57.2779 14.0272 57.4837 14.0272H65.1009V0H62.9511V12.0464Z" fill="white"/>
<path d="M70.0937 0H67.9425V14.0272H70.0937V0Z" fill="white"/>
<path d="M44.8038 3.84943C43.3915 3.84943 42.2337 4.37376 41.359 5.40494C40.4928 6.42883 40.0525 7.75276 40.0525 9.34176C40.0525 10.4268 40.2183 11.3342 40.5485 12.0464H5.88617C5.36873 12.0464 4.96279 11.9008 4.65119 11.5978C4.34244 11.2992 4.19093 10.9031 4.19093 10.3875V4.05188H2.13406V14.001C2.13406 14.738 1.97826 15.3322 1.67094 15.772C1.37649 16.1944 0.991986 16.3998 0.497423 16.3998H0V18.3806H0.541733C1.70239 18.3777 2.6129 17.9698 3.24897 17.1644C3.87504 16.3721 4.19093 15.2768 4.19093 13.9063V13.3703C4.53398 13.7097 5.00281 13.9398 5.59029 13.9908C5.79469 14.0083 6.20063 14.0287 6.40503 14.0287H44.029C45.5728 14.0287 46.8678 13.5626 47.8812 12.6436C48.9018 11.7172 49.4192 10.4297 49.4192 8.81452C49.4192 7.1993 48.9875 6.05161 48.1371 5.17481C47.2866 4.29657 46.1645 3.85089 44.8038 3.85089M46.3632 11.139C45.7729 11.742 44.9896 12.0479 44.0305 12.0479H42.7812C42.3981 11.4536 42.2066 10.5448 42.2066 9.34321C42.2066 8.25524 42.4596 7.38136 42.9599 6.74634C43.453 6.1186 44.0576 5.81275 44.8052 5.81275C45.5528 5.81275 46.1202 6.07054 46.569 6.60361C47.0222 7.13813 47.2494 7.87655 47.2494 8.79558C47.2494 9.76122 46.9607 10.5273 46.3632 11.139Z" fill="white"/>
</svg>